<svg width="84" height="84" viewBox="0 0 84 84" fill="none" xmlns="http://www.w3.org/2000/svg">
<path d="M38.5882 10C17.8022 10 1.51723 36.3145 0 58.5031C6.52409 69.7736 22.2527 74 38.5882 74C54.9238 74 70.6524 69.7736 77.1765 58.5031C75.6592 36.3145 59.3743 10 38.5882 10Z" fill="#B3DCFF"/>
<path d="M62.6619 37.6224C58.1102 31.786 52.2942 25.5973 48.9057 25.5973C45.5172 25.5973 36.1104 42.2011 31.8116 42.2011C27.5128 42.2011 25.2369 34.6539 19.9266 34.6539C12.6439 34.7042 5.56348 55.8866 5.56348 55.8866C5.56348 55.8866 8.49679 68.8174 39.1954 68.8174C69.8941 68.8174 72.3722 56.0879 72.3722 56.0879C72.3722 56.0879 69.186 46.025 62.6619 37.6224Z" fill="#5ECC62"/>
<path d="M22.1516 54.0751C22.1516 51.9619 23.8711 50.2009 26.0458 50.2009C28.2205 50.2009 29.9401 51.9116 29.9401 54.0751C29.9401 56.1883 28.2205 57.9493 26.0458 57.9493C23.8711 57.9493 22.1516 56.1883 22.1516 54.0751ZM47.2871 54.0751C47.2871 56.1883 49.0066 57.9493 51.1813 57.9493C53.3054 57.9493 55.0755 56.2386 55.0755 54.0751C55.0755 51.9619 53.356 50.2009 51.1813 50.2009C49.0066 50.2009 47.2871 51.9116 47.2871 54.0751ZM46.579 59.66C46.8825 59.0562 46.6296 58.3518 46.0733 58.0499C45.517 57.748 44.7583 57.9493 44.4549 58.5531C44.4043 58.6537 42.8365 61.4713 38.6894 61.4713C34.6435 61.4713 32.7722 58.6034 32.7217 58.5028C32.3676 57.9493 31.6596 57.748 31.1033 58.1002C30.547 58.4524 30.3447 59.1568 30.6987 59.7606C30.7998 59.9116 33.278 63.8864 38.74 63.8864C44.3032 63.8864 46.4779 59.8612 46.579 59.66Z" fill="black"/>
<path d="M32.2659 49.2451C27.5119 49.2451 25.0338 44.5658 23.7189 41.6979C22.5051 39.0816 22.3028 35.0061 18.9143 34.8552C19.2683 34.7042 19.5718 34.6539 19.8752 34.6539C25.1855 34.6539 27.4614 42.2011 31.7602 42.2011C36.059 42.2011 45.5164 25.5973 48.8543 25.5973C49.5118 25.5973 50.2198 25.7985 50.9784 26.2011C50.4221 26.1004 49.6635 26.2011 49.1072 26.7545C48.0451 27.8111 38.1831 49.2451 32.2659 49.2451Z" fill="#00AD45"/>
</svg>
