<svg width="120" height="120" viewBox="0 0 120 120" fill="none" xmlns="http://www.w3.org/2000/svg">
<path d="M76.6827 4.80005C87.7227 4.80005 93.2427 4.80005 99.2534 6.64005C105.755 8.97072 110.907 14.1227 113.237 20.624C115.2 26.6347 115.2 32.2774 115.2 43.3174V76.6827C115.2 87.7227 115.2 93.2427 113.36 99.2534C111.029 105.755 105.877 110.907 99.376 113.237C93.2427 115.2 87.7227 115.2 76.6827 115.2H43.3174C32.2774 115.2 26.7574 115.2 20.7467 113.36C14.1227 110.907 9.09338 105.877 6.64005 99.2534C4.80005 93.3654 4.80005 87.8454 4.80005 76.6827V43.3174C4.80005 32.2774 4.80005 26.7574 6.64005 20.7467C9.09338 14.2454 14.1227 9.09338 20.7467 6.76272C26.6347 4.80005 32.1547 4.80005 43.3174 4.80005H76.6827Z" fill="white"/>
<mask id="mask0" mask-type="alpha" maskUnits="userSpaceOnUse" x="4" y="4" width="112" height="112">
<path d="M76.6827 4.80005C87.7227 4.80005 93.2427 4.80005 99.2534 6.64005C105.755 8.97072 110.907 14.1227 113.237 20.624C115.2 26.6347 115.2 32.2774 115.2 43.3174V76.6827C115.2 87.7227 115.2 93.2427 113.36 99.2534C111.029 105.755 105.877 110.907 99.376 113.237C93.2427 115.2 87.7227 115.2 76.6827 115.2H43.3174C32.2774 115.2 26.7574 115.2 20.7467 113.36C14.1227 110.907 9.09338 105.877 6.64005 99.2534C4.80005 93.3654 4.80005 87.8454 4.80005 76.6827V43.3174C4.80005 32.2774 4.80005 26.7574 6.64005 20.7467C9.09338 14.2454 14.1227 9.09338 20.7467 6.76272C26.6347 4.80005 32.1547 4.80005 43.3174 4.80005H76.6827Z" fill="white"/>
</mask>
<g mask="url(#mask0)">
<path d="M29.7012 82.4478C29.8239 82.2025 30.0692 82.0798 30.3145 81.9571C31.2959 81.7118 32.2772 81.4665 33.2585 81.4665C35.9572 81.4665 38.4105 82.4478 40.3732 84.1651C40.6185 84.4105 40.6185 84.7785 40.4959 85.0238L35.4665 93.6105C34.4852 95.3278 32.6452 96.3091 30.8052 96.3091C29.7012 96.3091 28.5972 95.9411 27.6159 95.2051C25.4079 93.6105 24.9172 90.4211 26.2665 88.0905L29.7012 82.4478ZM95.0825 69.3225C97.9039 69.3225 100.357 71.4078 100.603 74.1065C100.848 77.2958 98.3946 79.9945 95.3279 79.9945H88.8265L93.6106 88.2131C94.9599 90.5438 94.4692 93.7331 92.2612 95.3278C91.2799 96.0638 90.1759 96.4318 89.0719 96.4318C87.2319 96.4318 85.3919 95.4505 84.4106 93.7331L72.8799 73.7385L63.8025 58.0371C63.6799 57.9145 63.6799 57.7918 63.6799 57.5465C63.6799 56.9331 63.5572 56.3198 63.5572 55.7065C63.5572 51.4131 64.5385 47.1198 66.5012 43.6851C66.7465 43.3171 67.3599 43.3171 67.6052 43.6851L82.5706 69.1998H95.0825V69.3225ZM66.8692 69.5678C69.5679 71.1625 71.2852 74.2291 71.2852 77.6638C71.2852 78.3998 71.1625 79.0131 71.0399 79.7491C71.0399 79.8718 70.7945 79.9945 70.6719 79.9945H53.4985H24.9172C21.8505 79.9945 19.2745 77.2958 19.6425 74.1065C19.8879 71.2851 22.3412 69.3225 25.1625 69.3225H37.3065L53.8665 40.8638L49.3279 33.1358C47.7332 30.4371 48.8372 26.8798 51.7812 25.6531C54.3572 24.5491 57.3012 25.6531 58.7732 27.9838L60.1225 30.3145L61.5945 27.8611C63.1892 25.1625 66.7465 24.3038 69.3225 26.1438C71.6532 27.7385 72.1439 30.9278 70.6719 33.3811L49.5732 69.3225H58.1599H66.0105C66.3785 69.3225 66.6239 69.4451 66.8692 69.5678Z" fill="url(#paint0_linear)"/>
</g>
<defs>
<linearGradient id="paint0_linear" x1="51.8182" y1="103.091" x2="100.364" y2="25.0909" gradientUnits="userSpaceOnUse">
<stop stop-color="#1E65F1"/>
<stop offset="1" stop-color="#1ADAFE"/>
</linearGradient>
</defs>
</svg>
