<svg width="32" height="32" viewBox="0 0 32 32" fill="none" xmlns="http://www.w3.org/2000/svg">
<rect width="32" height="32" fill="white"/>
<path d="M2.66844 13.0608C2.63442 13.002 2.6116 12.9373 2.60116 12.8702C2.59114 12.7954 2.59494 12.7194 2.61237 12.6459C3.09248 10.8423 3.93925 9.15699 5.09982 7.69524C6.26038 6.2335 7.70982 5.02669 9.35764 4.15017C11.0055 3.27364 12.8163 2.74622 14.6771 2.60083C16.5378 2.45544 18.4086 2.69521 20.1726 3.30516C20.2346 3.32773 20.2917 3.36199 20.3408 3.40608C20.3848 3.45335 20.4158 3.51134 20.4305 3.57428C20.458 3.63604 20.4722 3.7029 20.4722 3.77051C20.4722 3.83813 20.458 3.90498 20.4305 3.96675L19.8025 5.69361C19.7808 5.7554 19.7468 5.81213 19.7024 5.86033C19.6581 5.90852 19.6044 5.94718 19.5446 5.97395C19.4224 6.0238 19.2856 6.0238 19.1634 5.97395C17.779 5.49204 16.3096 5.30292 14.8483 5.41856C13.387 5.53419 11.9657 5.95207 10.6743 6.64571C9.383 7.33935 8.24978 8.29363 7.3465 9.44811C6.44322 10.6026 5.78956 11.9321 5.42694 13.3524C5.3999 13.4601 5.33653 13.5551 5.24752 13.6215C5.15636 13.6879 5.04631 13.7232 4.93355 13.7224H4.82141L3.00484 13.2963C2.93707 13.2819 2.87248 13.2553 2.81421 13.2178C2.75802 13.1764 2.712 13.1227 2.67965 13.0608" fill="#51B68C"/>
<path d="M29.0421 17.3447L28.8851 17.2213C28.8276 17.1861 28.7618 17.1668 28.6944 17.1653L26.833 16.9746C26.7014 16.9606 26.5693 16.9966 26.463 17.0756C26.3623 17.1574 26.2946 17.2729 26.2723 17.4008C25.9624 19.6062 24.9676 21.6585 23.4284 23.2681C21.8893 24.8777 19.8834 25.9632 17.6941 26.3715C15.7595 26.7398 13.7606 26.5651 11.9192 25.8669C11.859 25.841 11.7941 25.8276 11.7286 25.8276C11.663 25.8276 11.5981 25.841 11.5379 25.8669C11.4733 25.8894 11.4154 25.928 11.3697 25.979C11.326 26.0241 11.2916 26.0775 11.2688 26.136L10.5399 27.8629C10.5284 27.9259 10.5284 27.9905 10.5399 28.0535C10.5293 28.1204 10.5293 28.1885 10.5399 28.2553C10.568 28.3171 10.6059 28.3739 10.6521 28.4235L10.8315 28.5357C13.1715 29.4329 15.7134 29.668 18.1783 29.215C20.6431 28.762 22.9354 27.6385 24.8034 25.9678C27.1785 23.8258 28.713 20.9079 29.1318 17.7372C29.1429 17.6703 29.1429 17.6021 29.1318 17.5353C29.1093 17.4699 29.0751 17.4091 29.0308 17.3559" fill="#51B68C"/>
<path d="M18.7822 19.8563V17.9948C18.781 17.9293 18.7665 17.8646 18.7395 17.8049C18.7125 17.7451 18.6736 17.6915 18.6252 17.6472C18.5797 17.5974 18.5242 17.5577 18.4624 17.5307C18.4006 17.5036 18.3338 17.4898 18.2664 17.4902H3.07219C3.00473 17.4898 2.93793 17.5036 2.87612 17.5307C2.81431 17.5577 2.75886 17.5974 2.71336 17.6472C2.66644 17.692 2.62927 17.746 2.60418 17.8058C2.5791 17.8656 2.56664 17.93 2.56759 17.9948V19.8563C2.5569 19.9231 2.5569 19.9913 2.56759 20.0581C2.59452 20.1172 2.6326 20.1705 2.67972 20.2151C2.72653 20.2648 2.78405 20.3031 2.84792 20.3272C2.91094 20.3388 2.97554 20.3388 3.03855 20.3272H18.2664C18.3332 20.3377 18.4013 20.3377 18.4682 20.3272C18.5292 20.2979 18.5858 20.2601 18.6364 20.2151C18.6802 20.17 18.7145 20.1167 18.7373 20.0581C18.7682 19.9954 18.7836 19.9262 18.7822 19.8563Z" fill="#51B68C"/>
<path d="M12.9399 11.2561V13.1063C12.935 13.1733 12.9456 13.2406 12.9709 13.3028C12.9962 13.365 13.0355 13.4206 13.0857 13.4652C13.1312 13.515 13.1866 13.5547 13.2485 13.5817C13.3103 13.6088 13.3771 13.6226 13.4445 13.6222H28.6387C28.7017 13.6338 28.7663 13.6338 28.8293 13.6222C28.8932 13.5981 28.9507 13.5597 28.9975 13.51C29.0446 13.4654 29.0827 13.4121 29.1097 13.353C29.1203 13.2862 29.1203 13.2181 29.1097 13.1512V11.2561C29.1099 11.1903 29.096 11.1252 29.0689 11.0653C29.0418 11.0053 29.0022 10.9519 28.9527 10.9085C28.9079 10.8616 28.8539 10.8244 28.7941 10.7993C28.7343 10.7743 28.6699 10.7618 28.6051 10.7627H13.4445C13.3073 10.7634 13.1753 10.8154 13.0745 10.9085C12.9831 11.0059 12.9311 11.1338 12.9287 11.2673" fill="#51B68C"/>
<path d="M24.0414 5.08894C23.732 5.08446 23.4281 5.17018 23.1667 5.33563C22.9079 5.49474 22.7043 5.72964 22.5836 6.00843C22.462 6.28437 22.427 6.59068 22.483 6.88696C22.5391 7.18323 22.6836 7.45556 22.8976 7.66802C23.11 7.88633 23.3837 8.03493 23.6825 8.09413C23.9815 8.16241 24.2941 8.13897 24.5796 8.02685C24.8669 7.91686 25.1161 7.72602 25.2973 7.47739C25.4692 7.23034 25.5629 6.93735 25.5664 6.63639C25.5747 6.42943 25.5402 6.22298 25.4649 6.03001C25.3896 5.83705 25.2753 5.66172 25.1291 5.51505C24.8294 5.22304 24.4261 5.06175 24.0077 5.06651" fill="#51B68C"/>
<path d="M7.13163 23.5016C6.82336 23.4931 6.51933 23.5749 6.25699 23.7371C6.00301 23.9018 5.80085 24.135 5.67389 24.4099C5.54636 24.6902 5.50809 25.0031 5.56425 25.3059C5.62041 25.6088 5.76829 25.8871 5.98787 26.1031C6.2035 26.3171 6.47587 26.4649 6.7728 26.5292C7.07221 26.5916 7.38313 26.5683 7.66988 26.4619C7.95715 26.3519 8.20641 26.1611 8.38753 25.9125C8.55821 25.6648 8.65185 25.3722 8.65666 25.0715C8.66365 24.8646 8.62848 24.6586 8.5533 24.4658C8.47812 24.273 8.36449 24.0976 8.21933 23.9501C8.0764 23.8075 7.90676 23.6946 7.72012 23.6176C7.53349 23.5406 7.33351 23.5012 7.13163 23.5016Z" fill="#51B68C"/>
</svg>
