<svg width="56" height="56" viewBox="0 0 56 56" fill="none" xmlns="http://www.w3.org/2000/svg">
<g clip-path="url(#clip0)">
<path d="M51.2225 29.1145C51.1393 26.5043 49.001 24.4307 46.3898 24.4281H39.0836C39.0752 24.4276 39.0668 24.4239 39.0615 24.4176L36.9795 22.1393V14.9279C36.9763 12.2819 34.849 10.1288 32.2036 10.0931C32.1194 7.48288 29.9806 5.40924 27.3688 5.40609H20.0627C20.0543 5.40661 20.0459 5.40293 20.0406 5.39662L17.3894 2.49606C16.4725 1.49396 15.1774 0.922683 13.8192 0.921631H5.0854C2.41524 0.924787 0.251654 3.08837 0.249023 5.75853V31.2692C0.251654 33.9388 2.41524 36.1024 5.0854 36.1056H19.2694V50.2906C19.2731 52.9603 21.4367 55.1239 24.1063 55.1265H51.1646C53.8342 55.1233 55.9973 52.9603 56.0004 50.2906V33.9483C55.9968 31.3018 53.8689 29.1487 51.2225 29.1145ZM5.0854 34.2202C3.45627 34.2187 2.13592 32.8983 2.13434 31.2692V5.75853C2.13592 4.1294 3.45627 2.80905 5.0854 2.80694H13.8192C14.6477 2.80747 15.4378 3.15623 15.997 3.76749L18.6487 6.66805C19.0117 7.06468 19.5246 7.29088 20.0627 7.29088H27.3688C28.9401 7.29298 30.2347 8.52338 30.3162 10.092H13.281C10.6119 10.0946 8.44782 12.2577 8.44467 14.9273V31.2692C8.44309 32.8978 7.12326 34.2181 5.49466 34.2202H5.0854ZM19.2694 24.7795V34.2208H9.32157C9.97648 33.376 10.331 32.3376 10.3305 31.2692V14.9279C10.3326 13.2987 11.6524 11.9789 13.2816 11.9779H32.1442C33.7728 11.9794 35.0926 13.2993 35.0942 14.9279V20.5028C34.3998 20.1367 33.6265 19.9447 32.8412 19.9436H24.1063C21.4362 19.9463 19.2726 22.1093 19.2694 24.7795ZM24.1063 53.2412C22.4772 53.2396 21.1569 51.9203 21.1548 50.2912V24.7795C21.1569 23.1503 22.4772 21.831 24.1063 21.8295H32.8412C33.6692 21.83 34.4593 22.1782 35.019 22.7884L37.6691 25.689C38.0326 26.0856 38.5455 26.3123 39.0831 26.3134H46.3898C47.96 26.3144 49.2551 27.5448 49.3371 29.1135H32.302C29.6323 29.1161 27.4693 31.2792 27.4667 33.9488V50.2906C27.464 51.9198 26.1442 53.2396 24.5151 53.2412H24.1063ZM54.1151 50.2912C54.113 51.9198 52.7932 53.2396 51.1646 53.2412H28.3451C28.3546 53.2296 28.363 53.2175 28.3725 53.2059C28.3872 53.1859 28.4014 53.1665 28.4162 53.1465C28.4451 53.1076 28.4735 53.0676 28.5008 53.0271C28.515 53.0071 28.5293 52.9871 28.5429 52.9661C28.5713 52.9229 28.5992 52.8798 28.6266 52.8356C28.6376 52.8177 28.6487 52.8004 28.6597 52.7819C28.7349 52.6573 28.8044 52.5295 28.8685 52.3985L28.8938 52.3432C28.9164 52.2954 28.9385 52.2475 28.9595 52.1991C28.969 52.176 28.979 52.1528 28.9885 52.1297C29.0069 52.0844 29.0253 52.0387 29.0421 51.9924C29.0511 51.9687 29.06 51.9445 29.069 51.9208C29.0869 51.8719 29.1032 51.823 29.1189 51.7735C29.1258 51.7525 29.1326 51.732 29.1395 51.7104C29.1831 51.57 29.2199 51.4264 29.2504 51.2796C29.2552 51.258 29.2589 51.2354 29.2631 51.2138C29.2731 51.1623 29.2825 51.1107 29.2904 51.0587C29.2946 51.0318 29.2983 51.005 29.302 50.9782C29.3094 50.9298 29.3151 50.8809 29.3209 50.8319C29.3241 50.8051 29.3272 50.7767 29.3299 50.7493C29.3346 50.6973 29.3383 50.6452 29.3415 50.5931C29.343 50.5689 29.3451 50.5447 29.3462 50.5205C29.3499 50.4442 29.352 50.3674 29.352 50.2901V33.9483C29.3541 32.3197 30.6739 30.9998 32.302 30.9983H51.1646C52.7932 30.9998 54.113 32.3197 54.1151 33.9483V50.2912Z" fill="#EAEAEA"/>
<path d="M3.71277 44.2656C2.5355 43.0915 1.87743 41.4949 1.88532 39.8322C1.88532 39.5828 1.78537 39.344 1.60862 39.1678C1.43187 38.9921 1.192 38.8937 0.942659 38.8953C0.421357 38.8979 2.17587e-06 39.3214 2.17587e-06 39.8427C-0.00157594 42.0026 0.855337 44.0741 2.38242 45.6012C3.9095 47.1288 5.98156 47.9862 8.14094 47.9846H13.5991L11.1236 50.5317C10.7606 50.9052 10.769 51.5022 11.1425 51.8647C11.5155 52.2276 12.1125 52.2192 12.4755 51.8457L16.4313 47.7758C16.7858 47.4107 16.7874 46.8305 16.4339 46.4644L12.4781 42.3592C12.1167 41.9847 11.5202 41.9736 11.1451 42.3345C10.7701 42.6959 10.759 43.2929 11.1204 43.6675L13.4639 46.0993H8.13094C6.47235 46.103 4.88162 45.4423 3.71277 44.2656Z" fill="#EAEAEA"/>
</g>
<defs>
<clipPath id="clip0">
<rect width="56" height="56" fill="white"/>
</clipPath>
</defs>
</svg>
