<svg width="18" height="18" viewBox="0 0 18 18" fill="none" xmlns="http://www.w3.org/2000/svg">
<path d="M11.72 0C13.52 0 14.42 0 15.4 0.3C16.46 0.68 17.3 1.52 17.68 2.58C18 3.56 18 4.48 18 6.28V11.72C18 13.52 18 14.42 17.7 15.4C17.32 16.46 16.48 17.3 15.42 17.68C14.42 18 13.52 18 11.72 18H6.28C4.48 18 3.58 18 2.6 17.7C1.52 17.3 0.7 16.48 0.3 15.4C0 14.44 0 13.54 0 11.72V6.28C0 4.48 0 3.58 0.3 2.6C0.7 1.54 1.52 0.7 2.6 0.32C3.56 -2.38419e-08 4.46 0 6.28 0H11.72Z" fill="url(#paint0_linear)"/>
<mask id="mask0" mask-type="alpha" maskUnits="userSpaceOnUse" x="0" y="0" width="18" height="18">
<path d="M11.72 0C13.52 0 14.42 0 15.4 0.3C16.46 0.68 17.3 1.52 17.68 2.58C18 3.56 18 4.48 18 6.28V11.72C18 13.52 18 14.42 17.7 15.4C17.32 16.46 16.48 17.3 15.42 17.68C14.42 18 13.52 18 11.72 18H6.28C4.48 18 3.58 18 2.6 17.7C1.52 17.3 0.7 16.48 0.3 15.4C0 14.44 0 13.54 0 11.72V6.28C0 4.48 0 3.58 0.3 2.6C0.7 1.54 1.52 0.7 2.6 0.32C3.56 -2.38419e-08 4.46 0 6.28 0H11.72Z" fill="white"/>
</mask>
<g mask="url(#mask0)">
<path d="M4.05991 12.6596C4.07991 12.6196 4.11991 12.5996 4.15991 12.5796C4.31991 12.5396 4.47991 12.4996 4.63991 12.4996C5.07991 12.4996 5.47991 12.6596 5.79991 12.9396C5.83991 12.9796 5.83991 13.0396 5.81991 13.0796L4.99991 14.4796C4.83991 14.7596 4.53991 14.9196 4.23991 14.9196C4.05991 14.9196 3.87991 14.8596 3.71991 14.7396C3.35991 14.4796 3.27991 13.9596 3.49991 13.5796L4.05991 12.6596ZM14.7199 10.5196C15.1799 10.5196 15.5799 10.8596 15.6199 11.2996C15.6599 11.8196 15.2599 12.2596 14.7599 12.2596H13.6999L14.4799 13.5996C14.6999 13.9796 14.6199 14.4996 14.2599 14.7596C14.0999 14.8796 13.9199 14.9396 13.7399 14.9396C13.4399 14.9396 13.1399 14.7796 12.9799 14.4996L11.0999 11.2396L9.61991 8.67963C9.59991 8.65963 9.59991 8.63963 9.59991 8.59963C9.59991 8.49963 9.57991 8.39963 9.57991 8.29963C9.57991 7.59963 9.73991 6.89963 10.0599 6.33963C10.0999 6.27963 10.1999 6.27963 10.2399 6.33963L12.6799 10.4996H14.7199V10.5196ZM10.1199 10.5596C10.5599 10.8196 10.8399 11.3196 10.8399 11.8796C10.8399 11.9996 10.8199 12.0996 10.7999 12.2196C10.7999 12.2396 10.7599 12.2596 10.7399 12.2596H7.93991H3.27991C2.77991 12.2596 2.35991 11.8196 2.41991 11.2996C2.45991 10.8396 2.85991 10.5196 3.31991 10.5196H5.29991L7.99991 5.87963L7.25991 4.61963C6.99991 4.17963 7.17991 3.59963 7.65991 3.39963C8.07991 3.21963 8.55991 3.39963 8.79991 3.77963L9.01991 4.15963L9.25991 3.75963C9.51991 3.31963 10.0999 3.17963 10.5199 3.47963C10.8999 3.73963 10.9799 4.25963 10.7399 4.65963L7.29991 10.5196H8.69991H9.97991C10.0399 10.5196 10.0799 10.5396 10.1199 10.5596Z" fill="white"/>
</g>
<defs>
<linearGradient id="paint0_linear" x1="8.9972" y1="0.0056" x2="8.9972" y2="17.9996" gradientUnits="userSpaceOnUse">
<stop stop-color="#19E6FF"/>
<stop offset="1" stop-color="#1E51EE"/>
</linearGradient>
</defs>
</svg>
