<svg width="179" height="108" viewBox="0 0 179 108" fill="none" xmlns="http://www.w3.org/2000/svg">
<g opacity="0.15">
<path d="M4.68213 0L178.63 100.429L174.271 107.98L0.322416 7.55124L4.68213 0Z" fill="#B2BED0"/>
</g>
<g opacity="0.15">
<path d="M0.39917 100.449L174.347 0.0198669L178.707 7.57111L4.75888 108L0.39917 100.449Z" fill="#B2BED0"/>
</g>
<path d="M30.5373 10.1145C30.4049 9.62046 30.6981 9.11266 31.1921 8.98028L31.6394 8.86044C32.1334 8.72806 32.6412 9.02124 32.7736 9.51528L41.4947 42.0627C41.6271 42.5567 41.3339 43.0645 40.8398 43.1969L40.3926 43.3168C39.8985 43.4491 39.3907 43.156 39.2584 42.6619L30.5373 10.1145Z" fill="#303333"/>
<path d="M30.4175 9.66724L32.6538 9.06802L38.7659 31.8785L36.5295 32.4777L30.4175 9.66724Z" fill="#1B1B1B"/>
<g filter="url(#filter0_d)">
<path d="M16.3617 14.459C16.0969 13.4709 16.6833 12.4553 17.6714 12.1905L45.1469 4.82851C46.1349 4.56376 47.1505 5.15013 47.4153 6.13819L52.0571 23.4615C52.3218 24.4496 51.7355 25.4652 50.7474 25.73L23.2719 33.092C22.2838 33.3568 21.2682 32.7704 21.0035 31.7823L16.3617 14.459Z" fill="#FD334B"/>
</g>
<path d="M27.5084 18.7701C27.4913 18.8351 27.4676 18.886 27.4372 18.9229C27.4088 18.9564 27.3677 18.9804 27.3141 18.9947C27.2577 19.0098 27.1906 19.0062 27.1127 18.984C27.0368 18.9583 26.9464 18.9322 26.8415 18.9056C26.7366 18.8791 26.617 18.8622 26.4828 18.8551C26.3505 18.8445 26.2012 18.8615 26.0348 18.9061C25.8845 18.9463 25.7581 19.0004 25.6554 19.0681C25.5521 19.1332 25.4701 19.2084 25.4095 19.2936C25.3516 19.3782 25.3161 19.4711 25.303 19.5724C25.2892 19.671 25.2966 19.774 25.3254 19.8814C25.3621 20.0182 25.4302 20.1222 25.5298 20.1933C25.6321 20.2637 25.7549 20.3142 25.8983 20.3448C26.0417 20.3754 26.2007 20.3947 26.3754 20.4025C26.5501 20.4104 26.7298 20.4211 26.9147 20.4349C27.0989 20.4459 27.2819 20.4688 27.4638 20.5035C27.6449 20.5355 27.8144 20.5936 27.9721 20.6779C28.1292 20.7595 28.2679 20.8748 28.3884 21.0237C28.5115 21.1719 28.6054 21.3668 28.6701 21.6083C28.7406 21.8713 28.7611 22.1304 28.7317 22.3856C28.7043 22.6375 28.6264 22.8726 28.498 23.0911C28.3715 23.3062 28.1968 23.4968 27.9738 23.663C27.7502 23.8265 27.4773 23.9514 27.1553 24.0377C26.9701 24.0873 26.7826 24.1174 26.5927 24.128C26.4036 24.1413 26.2168 24.1367 26.0325 24.1142C25.8508 24.0909 25.6749 24.0518 25.5048 23.9967C25.3347 23.9416 25.1779 23.8714 25.0343 23.7863L25.2131 23.1818C25.2299 23.137 25.2565 23.0968 25.293 23.0611C25.3287 23.0228 25.3707 22.9972 25.419 22.9842C25.4861 22.9662 25.5661 22.975 25.6591 23.0105C25.7513 23.0433 25.86 23.0789 25.9854 23.1172C26.1107 23.1555 26.252 23.1838 26.4093 23.2021C26.5686 23.2169 26.7489 23.1974 26.9502 23.1434C27.2588 23.0608 27.4782 22.9243 27.6085 22.7341C27.738 22.5412 27.7661 22.3079 27.6927 22.0342C27.6517 21.8812 27.5794 21.7668 27.4757 21.6911C27.3746 21.6146 27.2524 21.5611 27.109 21.5304C26.9649 21.4971 26.8063 21.4793 26.633 21.4768C26.4598 21.4743 26.2828 21.4685 26.102 21.4594C25.9213 21.4503 25.7403 21.4298 25.5592 21.3978C25.378 21.3658 25.2082 21.3063 25.0497 21.2194C24.8912 21.1324 24.749 21.0094 24.623 20.8505C24.4989 20.6881 24.4013 20.4741 24.3301 20.2085C24.2733 19.9965 24.2596 19.7787 24.2888 19.5551C24.3208 19.3308 24.3964 19.1193 24.5157 18.9205C24.635 18.7217 24.8002 18.5437 25.0111 18.3865C25.2221 18.2293 25.4806 18.1097 25.7865 18.0277C26.13 17.9357 26.4611 17.9045 26.7797 17.9342C27.0982 17.9639 27.3854 18.048 27.6411 18.1866L27.5084 18.7701Z" fill="white"/>
<path d="M32.8477 17.1582L31.0926 17.6285L32.4139 22.5596L31.3311 22.8497L30.0098 17.9186L28.2547 18.3889L28.0164 17.4993L32.6093 16.2686L32.8477 17.1582Z" fill="white"/>
<path d="M39.5053 17.5402C39.6196 17.9668 39.6545 18.3817 39.6101 18.7848C39.5676 19.1845 39.4532 19.5517 39.2667 19.8864C39.0803 20.2211 38.8261 20.5121 38.5041 20.7595C38.1813 21.0041 37.7986 21.1858 37.3558 21.3044C36.9157 21.4224 36.4947 21.4561 36.0929 21.4055C35.6903 21.3523 35.3233 21.2278 34.9918 21.0319C34.663 20.8352 34.3789 20.5748 34.1396 20.2506C33.8996 19.9238 33.7224 19.547 33.6081 19.1203C33.4937 18.6936 33.4592 18.2801 33.5043 17.8797C33.5488 17.4766 33.6642 17.1077 33.8506 16.773C34.0397 16.4376 34.2957 16.1475 34.6184 15.9029C34.9404 15.6555 35.3215 15.4729 35.7616 15.3549C36.0568 15.2758 36.3439 15.2363 36.6229 15.2363C36.9012 15.2337 37.1659 15.2663 37.4171 15.3342C37.6675 15.3994 37.9027 15.4989 38.1226 15.6326C38.3445 15.763 38.5453 15.922 38.7251 16.1097C38.9048 16.2974 39.06 16.5118 39.1908 16.7529C39.3242 16.9933 39.429 17.2557 39.5053 17.5402ZM38.3983 17.8368C38.3127 17.5174 38.1932 17.2431 38.0397 17.0139C37.8855 16.7819 37.7056 16.5986 37.4998 16.4639C37.294 16.3293 37.0644 16.2455 36.8112 16.2127C36.5606 16.1792 36.2931 16.2005 36.0086 16.2767C35.7241 16.353 35.4804 16.4686 35.2775 16.6236C35.0772 16.778 34.9203 16.9653 34.8068 17.1855C34.6959 17.4051 34.6317 17.6538 34.6141 17.9318C34.5958 18.207 34.6295 18.5043 34.7151 18.8237C34.8006 19.143 34.9205 19.4187 35.0747 19.6506C35.2282 19.8799 35.4078 20.0618 35.6136 20.1965C35.8213 20.3278 36.0505 20.4102 36.3011 20.4437C36.5544 20.4765 36.8232 20.4548 37.1077 20.3786C37.3921 20.3024 37.6345 20.1871 37.8348 20.0328C38.0377 19.8777 38.195 19.6918 38.3066 19.4749C38.4174 19.2554 38.482 19.008 38.5003 18.7327C38.5179 18.4548 38.4839 18.1561 38.3983 17.8368Z" fill="white"/>
<path d="M42.3524 16.7945C42.551 16.7413 42.7176 16.6708 42.8523 16.5829C42.9862 16.4924 43.0893 16.3886 43.1614 16.2714C43.2356 16.1509 43.2792 16.0184 43.2922 15.874C43.3046 15.7268 43.2888 15.5714 43.245 15.4077C43.2033 15.2521 43.1414 15.1177 43.0593 15.0045C42.9772 14.8913 42.8759 14.8034 42.7556 14.7407C42.6353 14.678 42.4952 14.6437 42.3354 14.6376C42.1748 14.6288 41.9939 14.6514 41.7926 14.7053L40.9835 14.9221L41.5433 17.0113L42.3524 16.7945ZM41.5683 13.8681C41.9574 13.7638 42.3064 13.7192 42.6153 13.7342C42.9242 13.7492 43.1932 13.8138 43.4222 13.9279C43.6513 14.0419 43.8406 14.2012 43.9903 14.4055C44.1427 14.6092 44.2552 14.8466 44.3278 15.1176C44.4033 15.3994 44.4257 15.6709 44.3951 15.9322C44.3637 16.1909 44.2767 16.4299 44.1342 16.6493C43.9916 16.8687 43.7907 17.0635 43.5314 17.2336C43.2748 17.403 42.9573 17.5385 42.5789 17.6398L41.7698 17.8566L42.3188 19.9056L41.236 20.1957L39.6764 14.375L41.5683 13.8681Z" fill="white"/>
<path fill-rule="evenodd" clip-rule="evenodd" d="M76.0945 80.0331C75.4345 80.0495 75.0035 80.7331 75.2723 81.3372L79.3589 90.5226L77.8959 90.5589C77.5723 90.567 77.3165 90.8362 77.3246 91.1604C77.3646 92.781 78.7084 94.0622 80.3261 94.0221L86.7122 93.8635L86.7122 93.8634L87.009 93.856C87.5199 93.8433 87.9237 93.4182 87.9111 92.9064L87.6088 80.6745C87.5962 80.1627 87.1718 79.7581 86.661 79.7708L76.0945 80.0331Z" fill="#637889"/>
<path fill-rule="evenodd" clip-rule="evenodd" d="M100.899 80.0334C101.559 80.0497 101.99 80.7334 101.721 81.3374L97.6345 90.5229L99.0976 90.5592C99.4211 90.5672 99.6769 90.8365 99.6689 91.1606C99.6288 92.7812 98.285 94.0625 96.6673 94.0223L90.2812 93.8638L90.2812 93.8636L89.9844 93.8563C89.4736 93.8436 89.0697 93.4184 89.0823 92.9066L89.3846 80.6747C89.3973 80.1629 89.8216 79.7583 90.3324 79.771L100.899 80.0334Z" fill="#637889"/>
<path fill-rule="evenodd" clip-rule="evenodd" d="M64.4703 49.7477C64.0019 48.2983 62.4362 47.5275 60.9734 48.026C55.2128 49.989 51.3319 50.1331 48.7542 49.5442C46.2605 48.9744 44.7689 47.6719 43.8079 46.1838C42.8026 44.6271 42.3374 42.7899 42.1438 41.2443C42.0489 40.4872 42.0241 39.84 42.0226 39.3911C42.0219 39.1677 42.027 38.9964 42.0316 38.8886C42.0339 38.8348 42.0361 38.7971 42.0374 38.777L42.0383 38.762L42.0381 38.7651C42.0382 38.7636 42.0383 38.7621 42.0384 38.7607C42.158 37.2351 41.0204 35.9255 39.4929 35.8331C37.962 35.7405 36.6192 36.9057 36.4937 38.4356L39.2656 38.6033C36.4937 38.4356 36.4935 38.4373 36.4934 38.439L36.4931 38.4428L36.4924 38.4519L36.4906 38.4758C36.4899 38.4856 36.4891 38.4968 36.4882 38.5094C36.4875 38.5204 36.4867 38.5325 36.4859 38.5456C36.4823 38.6017 36.4781 38.677 36.4741 38.7699C36.4662 38.9554 36.4591 39.2122 36.4601 39.5278C36.4622 40.1569 36.4965 41.0312 36.6239 42.0484C36.8749 44.0513 37.5071 46.7734 39.1131 49.2602C40.7634 51.8156 43.3969 54.0407 47.4031 54.956C51.3255 55.8521 56.3195 55.4386 62.6697 53.2746C64.1326 52.7761 64.9388 51.1971 64.4703 49.7477ZM42.0381 38.7651C42.038 38.7661 42.0379 38.7671 42.0379 38.768L42.0381 38.7651Z" fill="#637889"/>
<path fill-rule="evenodd" clip-rule="evenodd" d="M110.563 50.1868C110.846 48.6912 112.305 47.7286 113.82 48.0368C120.204 49.3349 124.462 51.2823 126.854 53.9551C129.485 56.8956 129.451 60.2078 128.444 62.8999C127.494 65.4372 125.65 67.6061 124.221 69.042C123.481 69.7852 122.794 70.3883 122.29 70.808C122.037 71.0186 121.828 71.185 121.677 71.3018C121.602 71.3603 121.541 71.4065 121.497 71.4398C121.475 71.4564 121.457 71.4699 121.443 71.48L121.426 71.4927L121.42 71.4971L121.418 71.4989C121.417 71.4997 121.416 71.5003 119.756 69.3025L121.416 71.5004C120.187 72.4006 118.436 72.1305 117.505 70.8971C116.574 69.6648 116.814 67.9372 118.039 67.0363C118.04 67.0363 118.04 67.0363 118.04 67.0363C118.04 67.036 118.041 67.0354 118.042 67.0347L118.066 67.0168C118.09 66.9988 118.129 66.9687 118.182 66.9272C118.289 66.8442 118.451 66.7162 118.652 66.5484C119.057 66.2114 119.614 65.7222 120.21 65.1231C121.454 63.8746 122.657 62.359 123.204 60.8965C123.693 59.5887 123.604 58.5857 122.705 57.5802C121.565 56.307 118.817 54.6776 112.793 53.4527C111.278 53.1445 110.279 51.6823 110.563 50.1868ZM118.039 67.0366L118.039 67.0366L118.039 67.0366Z" fill="#637889"/>
<g filter="url(#filter1_f)">
<path d="M60.2783 47.6734C60.2782 36.7593 60.2781 31.3023 63.6687 27.9118C67.0592 24.5213 72.5162 24.5213 83.4302 24.5214L94.136 24.5215C105.05 24.5216 110.507 24.5216 113.898 27.9122C117.288 31.3028 117.288 36.7598 117.288 47.6738L117.288 61.1834C117.288 72.0975 117.289 77.5545 113.898 80.945C110.507 84.3355 105.05 84.3355 94.1365 84.3354L83.4307 84.3353C72.5167 84.3352 67.0597 84.3351 63.6691 80.9446C60.2785 77.554 60.2785 72.097 60.2784 61.183L60.2783 47.6734Z" fill="#B2BED0"/>
</g>
<path d="M57.5561 43.8206C57.556 32.9066 57.556 27.4496 60.9465 24.059C64.337 20.6685 69.794 20.6686 80.708 20.6686L96.533 20.6688C107.447 20.6689 112.904 20.6689 116.295 24.0595C119.685 27.4501 119.685 32.9071 119.685 43.8211L119.685 59.8052C119.686 70.7192 119.686 76.1762 116.295 79.5667C112.905 82.9572 107.448 82.9572 96.5335 82.9571L80.7085 82.957C69.7945 82.9569 64.3375 82.9568 60.9469 79.5663C57.5564 76.1757 57.5563 70.7187 57.5562 59.8047L57.5561 43.8206Z" fill="#D2D7DD"/>
<path d="M94.3582 38.6719C94.0123 38.6735 93.7275 38.9568 93.7802 39.2984C93.8312 39.6295 93.9223 39.9538 94.0522 40.2641C94.2627 40.7675 94.571 41.2243 94.9592 41.6085C95.3475 41.9927 95.8082 42.2968 96.315 42.5033C96.8218 42.7098 97.3649 42.8148 97.9131 42.8122C98.4614 42.8096 99.0041 42.6995 99.5103 42.4882C100.016 42.2769 100.476 41.9686 100.863 41.5807C101.25 41.1929 101.557 40.7332 101.766 40.2278C101.895 39.9162 101.985 39.5911 102.035 39.2596C102.087 38.9174 101.801 38.6368 101.455 38.6384C101.11 38.6401 100.836 38.9249 100.763 39.2631C100.726 39.4312 100.675 39.5961 100.608 39.756C100.462 40.1098 100.247 40.4316 99.9764 40.7031C99.7054 40.9745 99.3836 41.1904 99.0292 41.3383C98.6749 41.4862 98.295 41.5633 97.9112 41.5651C97.5275 41.5669 97.1473 41.4934 96.7925 41.3488C96.4378 41.2043 96.1153 40.9914 95.8435 40.7225C95.5717 40.4536 95.356 40.1338 95.2085 39.7814C95.1419 39.6222 95.0899 39.4577 95.0528 39.29C94.9781 38.9525 94.704 38.6702 94.3582 38.6719Z" fill="#B2BED0"/>
<path d="M94.4223 39.3301C94.0744 39.3312 93.7886 39.6156 93.8396 39.9598C93.891 40.3066 93.9841 40.6464 94.1172 40.9714C94.3299 41.4908 94.6408 41.9624 95.032 42.3592C95.4232 42.756 95.8872 43.0702 96.3974 43.284C96.9077 43.4978 97.4541 43.607 98.0056 43.6052C98.5572 43.6035 99.1029 43.4909 99.6118 43.2738C100.121 43.0568 100.583 42.7396 100.971 42.3404C101.36 41.9411 101.668 41.4676 101.877 40.9469C102.008 40.621 102.099 40.2806 102.149 39.9335C102.197 39.589 101.91 39.3064 101.562 39.3075C101.214 39.3086 100.939 39.5945 100.869 39.9353C100.833 40.1138 100.78 40.2889 100.712 40.4585C100.565 40.823 100.35 41.1544 100.078 41.4339C99.8054 41.7134 99.4821 41.9354 99.1259 42.0873C98.7697 42.2393 98.3876 42.3181 98.0016 42.3193C97.6155 42.3205 97.233 42.2441 96.8758 42.0945C96.5187 41.9448 96.1939 41.7248 95.92 41.4471C95.6462 41.1693 95.4286 40.8392 95.2797 40.4757C95.2104 40.3066 95.1567 40.1317 95.1188 39.9535C95.0466 39.6131 94.7702 39.329 94.4223 39.3301Z" fill="#1E253C"/>
<path d="M75.6834 38.7312C75.3375 38.7328 75.0527 39.0161 75.1054 39.3578C75.1564 39.6888 75.2475 40.0131 75.3774 40.3235C75.5879 40.8268 75.8961 41.2837 76.2844 41.6679C76.6727 42.052 77.1334 42.3561 77.6402 42.5626C78.147 42.7691 78.6901 42.8741 79.2383 42.8715C79.7866 42.8689 80.3293 42.7589 80.8355 42.5476C81.3417 42.3363 81.8015 42.0279 82.1885 41.64C82.5756 41.2522 82.8824 40.7925 83.0915 40.2871C83.2204 39.9756 83.3105 39.6504 83.3605 39.3189C83.4121 38.9767 83.1265 38.6961 82.7806 38.6978C82.4348 38.6994 82.1616 38.9842 82.0879 39.3224C82.0513 39.4905 81.9998 39.6555 81.9336 39.8153C81.7873 40.1691 81.5725 40.4909 81.3016 40.7624C81.0306 41.0339 80.7088 41.2497 80.3544 41.3976C80.0001 41.5455 79.6202 41.6226 79.2364 41.6244C78.8527 41.6262 78.4725 41.5527 78.1177 41.4082C77.763 41.2636 77.4405 41.0508 77.1687 40.7818C76.8969 40.5129 76.6811 40.1931 76.5337 39.8408C76.4671 39.6815 76.4151 39.517 76.3779 39.3493C76.3033 39.0118 76.0292 38.7296 75.6834 38.7312Z" fill="#B2BED0"/>
<path d="M75.7472 39.389C75.3993 39.3901 75.1135 39.6745 75.1646 40.0186C75.216 40.3654 75.309 40.7052 75.4422 41.0303C75.6549 41.5497 75.9657 42.0212 76.357 42.418C76.7482 42.8148 77.2122 43.1291 77.7224 43.3429C78.2326 43.5567 78.7791 43.6658 79.3306 43.6641C79.8821 43.6623 80.4279 43.5497 80.9367 43.3327C81.4456 43.1157 81.9076 42.7985 82.2963 42.3992C82.685 41.9999 82.9929 41.5264 83.2023 41.0057C83.3333 40.6798 83.4242 40.3394 83.4735 39.9923C83.5223 39.6478 83.2347 39.3653 82.8868 39.3664C82.5389 39.3675 82.2643 39.6533 82.1942 39.9941C82.1575 40.1726 82.1049 40.3478 82.0367 40.5173C81.8901 40.8818 81.6746 41.2133 81.4025 41.4927C81.1304 41.7722 80.807 41.9943 80.4508 42.1462C80.0946 42.2981 79.7126 42.3769 79.3265 42.3781C78.9405 42.3794 78.5579 42.303 78.2008 42.1533C77.8436 42.0036 77.5188 41.7837 77.245 41.5059C76.9711 41.2282 76.7535 40.8981 76.6046 40.5345C76.5354 40.3654 76.4816 40.1906 76.4438 40.0123C76.3716 39.672 76.0952 39.3879 75.7472 39.389Z" fill="#1E253C"/>
<path d="M84.3889 47.3046C84.095 47.5992 84.0925 48.0814 84.4213 48.3364C84.8724 48.6862 85.3735 48.9705 85.9112 49.1808C86.6853 49.4834 87.5202 49.6266 88.3681 49.602C89.2161 49.5774 90.0606 49.3857 90.8535 49.0376C91.4306 48.7843 91.9721 48.4517 92.462 48.0509C92.766 47.8023 92.7639 47.3481 92.4865 47.07C92.2091 46.7919 91.7618 46.7962 91.4506 47.0358C91.1056 47.3013 90.7301 47.5243 90.3327 47.6988C89.7195 47.968 89.0663 48.1163 88.4104 48.1353C87.7545 48.1543 87.1088 48.0436 86.5101 47.8095C86.1478 47.6678 85.807 47.4827 85.4946 47.2584C85.1565 47.0159 84.6829 47.0099 84.3889 47.3046Z" fill="#B2BED0"/>
<path d="M84.3889 47.7675C84.095 48.0621 84.0925 48.5443 84.4213 48.7993C84.8724 49.149 85.3735 49.4334 85.9112 49.6437C86.6853 49.9463 87.5202 50.0895 88.3681 50.0649C89.2161 50.0403 90.0606 49.8486 90.8535 49.5005C91.4306 49.2472 91.9721 48.9146 92.462 48.5138C92.766 48.2652 92.7639 47.811 92.4865 47.5329C92.2091 47.2548 91.7618 47.2591 91.4506 47.4987C91.1056 47.7642 90.7301 47.9872 90.3327 48.1617C89.7195 48.4309 89.0663 48.5792 88.4104 48.5982C87.7545 48.6172 87.1088 48.5065 86.5101 48.2724C86.1478 48.1307 85.807 47.9456 85.4946 47.7213C85.1565 47.4788 84.6829 47.4728 84.3889 47.7675Z" fill="#1E253C"/>
<path d="M88.6763 1.24828C89.2249 1.14836 89.7871 1.14836 90.3357 1.24828L115.688 5.86586C116.995 6.10386 118.137 6.8916 118.823 8.02883L122.073 13.4137C123.489 15.7599 122.569 18.8158 120.093 19.99L106.118 26.6173C105.498 26.9113 104.821 27.0639 104.134 27.0639H74.8776C74.1913 27.0639 73.5136 26.9113 72.8935 26.6173L58.9194 19.99C56.4434 18.8158 55.5233 15.7599 56.9392 13.4137L60.1889 8.02883C60.8752 6.8916 62.0169 6.10386 63.3236 5.86586L88.6763 1.24828Z" fill="#637889"/>
<path d="M63.1125 19.6187H115.899V23.323H63.1125V19.6187Z" fill="#1E384E"/>
<path d="M63.1126 23.323C63.1126 24.9195 65.8933 26.4506 70.8431 27.5794C75.7928 28.7083 82.506 29.3425 89.506 29.3425C96.506 29.3425 103.219 28.7083 108.169 27.5794C113.119 26.4506 115.899 24.9195 115.899 23.323L89.506 23.323L63.1126 23.323Z" fill="#425A6F"/>
<path d="M63.1126 23.323C63.1126 24.9195 65.8933 26.4506 70.8431 27.5794C75.7928 28.7083 82.506 29.3425 89.506 29.3425C96.506 29.3425 103.219 28.7083 108.169 27.5794C113.119 26.4506 115.899 24.9195 115.899 23.323L89.506 23.323L63.1126 23.323Z" fill="url(#paint0_linear)"/>
<path d="M89.5112 8.04812C87.0616 8.04812 84.8026 8.95085 83.0338 10.437C83.0338 10.5207 83.0234 10.6025 83.0234 10.6866C83.0234 15.9369 85.7909 20.3354 89.5008 21.4709C93.2157 20.3405 95.9886 15.9419 95.9886 10.6866C95.9886 10.6024 95.9799 10.5208 95.9782 10.437C94.2095 8.94585 91.9607 8.04272 89.5112 8.04272L89.5112 8.04812Z" fill="#FCFCFC"/>
<path d="M89.0935 10.703C89.2654 10.3663 89.7466 10.3663 89.9184 10.703L90.6482 12.1329C90.7154 12.2648 90.8417 12.3565 90.9879 12.3797L92.5733 12.6319C92.9467 12.6913 93.0954 13.1489 92.8282 13.4164L91.6938 14.5523C91.5892 14.657 91.541 14.8055 91.564 14.9517L91.8141 16.5374C91.873 16.9109 91.4838 17.1937 91.1468 17.0223L89.7159 16.2944C89.584 16.2273 89.428 16.2273 89.296 16.2944L87.8652 17.0223C87.5282 17.1937 87.1389 16.9109 87.1978 16.5374L87.4479 14.9517C87.471 14.8055 87.4228 14.657 87.3182 14.5523L86.1837 13.4164C85.9166 13.1489 86.0653 12.6913 86.4386 12.6319L88.0241 12.3797C88.1703 12.3565 88.2965 12.2648 88.3638 12.1329L89.0935 10.703Z" fill="#FDE840"/>
<defs>
<filter id="filter0_d" x="11.8823" y="4.34912" width="44.6541" height="37.2222" filterUnits="userSpaceOnUse" color-interpolation-filters="sRGB">
<feFlood flood-opacity="0" result="BackgroundImageFix"/>
<feColorMatrix in="SourceAlpha" type="matrix" values="0 0 0 0 0 0 0 0 0 0 0 0 0 0 0 0 0 0 127 0"/>
<feOffset dy="4"/>
<feGaussianBlur stdDeviation="2"/>
<feColorMatrix type="matrix" values="0 0 0 0 0 0 0 0 0 0 0 0 0 0 0 0 0 0 0.1 0"/>
<feBlend mode="normal" in2="BackgroundImageFix" result="effect1_dropShadow"/>
<feBlend mode="normal" in="SourceGraphic" in2="effect1_dropShadow" result="shape"/>
</filter>
<filter id="filter1_f" x="40.2783" y="4.52148" width="97.0101" height="99.8139" filterUnits="userSpaceOnUse" color-interpolation-filters="sRGB">
<feFlood flood-opacity="0" result="BackgroundImageFix"/>
<feBlend mode="normal" in="SourceGraphic" in2="BackgroundImageFix" result="shape"/>
<feGaussianBlur stdDeviation="10" result="effect1_foregroundBlur"/>
</filter>
<linearGradient id="paint0_linear" x1="92.0527" y1="18.6926" x2="72.3735" y2="25.6382" gradientUnits="userSpaceOnUse">
<stop stop-color="white" stop-opacity="0"/>
<stop offset="0.482024" stop-color="white" stop-opacity="0.24"/>
<stop offset="1" stop-color="white" stop-opacity="0"/>
</linearGradient>
</defs>
</svg>
