<svg width="32" height="32" viewBox="0 0 32 32" fill="none" xmlns="http://www.w3.org/2000/svg">
<rect width="32" height="32" fill="white"/>
<path fill-rule="evenodd" clip-rule="evenodd" d="M16.0002 28.8002C23.0695 28.8002 28.8002 23.0692 28.8002 16.0002C28.8002 8.93089 23.0695 3.2002 16.0002 3.2002C8.93089 3.2002 3.2002 8.93089 3.2002 16.0002C3.2002 23.0692 8.93089 28.8002 16.0002 28.8002ZM24.9106 15.0423C25.2226 15.1047 25.4542 15.3787 25.4542 15.7074C25.4542 15.9177 25.3568 16.1074 25.2041 16.2325L25.2013 16.2349C25.1874 16.2462 25.1733 16.2567 25.1586 16.2667C25.154 16.2701 25.1494 16.2734 25.1445 16.2765C25.1347 16.2829 25.1247 16.2888 25.1144 16.2947C25.1052 16.3001 25.0962 16.3058 25.0867 16.3107L25.0849 16.3115C24.9908 16.3608 24.8836 16.3893 24.7697 16.3893H18.7067C18.7517 16.5751 18.8001 16.7844 18.8527 17.0116L18.8655 17.0669L18.8656 17.0671C19.198 18.502 20.0808 22.3133 21.0184 22.3133L21.0367 22.3138L21.0469 22.3123L21.0649 22.3125C21.7975 22.3123 22.1714 21.2533 22.9906 18.9331L23.0006 18.9051C23.1322 18.5324 23.2808 18.1119 23.4414 17.6673L23.4825 17.5537L23.4831 17.5539C23.525 17.4429 23.6319 17.364 23.7576 17.364C23.9195 17.364 24.0508 17.4953 24.0508 17.6573C24.0508 17.6868 24.0465 17.7151 24.0382 17.7418H24.0385L24.0043 17.8559C23.9187 18.1322 23.828 18.5083 23.7231 18.9437L23.7228 18.9451C23.2342 20.969 22.4964 24.0249 20.6041 24.0249H20.5902C19.3675 24.0151 18.6358 22.0607 18.3231 21.2256L18.323 21.2251C17.7385 19.6639 17.2961 18.0004 16.8697 16.3893H11.2886L10.1299 20.0975L10.1132 20.0841C10.0071 20.2507 9.82124 20.3576 9.61613 20.3576C9.29279 20.3576 9.02831 20.0944 9.02677 19.7708L9.02754 19.7507L9.09771 19.3313C9.25783 18.3785 9.44958 17.3894 9.66831 16.3893H7.31136L7.30262 16.3803C6.87467 16.3187 6.54619 15.9413 6.54619 15.5013C6.54619 15.0698 6.85154 14.7027 7.27229 14.6282C7.31085 14.623 7.38873 14.6164 7.54808 14.6164C7.58201 14.6164 7.62005 14.6166 7.66246 14.6174C8.40964 14.6302 9.20206 14.6423 10.0713 14.6534C11.3017 9.65469 12.7264 7.1173 14.3069 7.11011C16.003 7.11011 17.2609 10.972 18.268 14.7492L18.2721 14.7644C20.3411 14.8058 22.5467 14.8662 24.6906 15.0196L24.7803 15.0281C24.8147 15.0286 24.8484 15.032 24.8815 15.0374L24.8941 15.0387C24.8959 15.0389 24.8977 15.0394 24.8995 15.0398C24.9013 15.0403 24.9031 15.0407 24.9049 15.041C24.907 15.0415 24.9088 15.042 24.9106 15.0423ZM14.2414 8.8194C14.3311 8.8194 14.4118 8.86849 14.4827 8.96205C14.6609 9.23836 14.9685 9.85805 15.4237 11.2424C15.7352 12.1896 16.075 13.3629 16.4346 14.7318C15.0706 14.7107 13.6906 14.6951 12.3543 14.6799L11.6775 14.6722C12.4419 11.6837 13.3747 9.41571 14.0563 8.88032C14.0998 8.85256 14.1674 8.8194 14.2414 8.8194Z" fill="#037FD3"/>
</svg>
