<svg width="32" height="32" viewBox="0 0 32 32" fill="none" xmlns="http://www.w3.org/2000/svg">
<rect width="32" height="32" fill="white"/>
<path d="M30.0871 16.0031C30.0871 8.23558 23.7691 1.91992 16.0039 1.91992C8.23879 1.91992 1.91992 8.23558 1.91992 16.0031C1.91992 23.3413 7.56139 29.3857 14.735 30.0286H14.7695C14.8873 30.0387 15.0052 30.0475 15.1235 30.055L15.1917 30.0591C15.2987 30.0655 15.4073 30.0703 15.5176 30.0735H15.6034C15.7367 30.0735 15.8699 30.0799 16.0047 30.0799C16.1396 30.0799 16.2592 30.0799 16.386 30.0743H16.4397C16.5516 30.0711 16.6629 30.0665 16.7736 30.0607H16.7961C17.046 30.0467 17.2942 30.0261 17.5409 29.9989C24.5853 29.2348 30.0871 23.2498 30.0871 16.0031ZM17.4928 28.6585L17.3571 24.7635L20.7585 22.6767C21.5545 23.2223 22.5894 23.2748 23.4365 22.8127C24.2836 22.3505 24.7995 21.4518 24.7715 20.4873C24.717 19.1364 23.6344 18.0537 22.2835 17.9992C21.5181 17.9717 20.781 18.2899 20.2759 18.8656C19.7708 19.4413 19.5514 20.2135 19.6782 20.9688L17.2777 22.4536L17.1035 17.5457L20.4511 15.4983C21.6272 16.3765 23.2646 16.2813 24.3308 15.2725C25.397 14.2638 25.5828 12.6342 24.7711 11.4113C23.9593 10.1885 22.3854 9.72703 21.0418 10.318C19.6983 10.9089 18.9747 12.3809 19.3275 13.8056L17.0232 15.2358L16.8868 11.3192C17.9831 10.8952 18.6877 9.82013 18.6389 8.6457C18.5818 7.27627 17.5227 6.15911 16.1583 6.02905C14.7938 5.899 13.5428 6.79596 13.228 8.12994C12.9132 9.46393 13.6313 10.8255 14.91 11.3192L14.6612 19.4342L12.1531 17.8363C12.3204 17.1524 12.2405 16.4315 11.9275 15.8009C11.4259 14.7575 10.4146 14.0175 9.2613 13.9453C7.83494 13.8522 6.52183 14.7225 6.05188 16.0724C5.58193 17.4223 6.0707 18.9199 7.24651 19.7327C8.42231 20.5455 9.99601 20.4736 11.0928 19.557L14.589 21.769L14.3787 28.6433C8.1184 27.8447 3.25625 22.4809 3.25625 16.0031C3.26107 8.97718 8.97718 3.25946 16.0039 3.25946C23.0307 3.25946 28.7468 8.97557 28.7468 16.0023C28.7468 22.5259 23.8196 27.9185 17.4928 28.6585Z" fill="#333E48"/>
<path d="M15.9241 7.10938C16.8398 7.11026 17.582 7.85242 17.5829 8.7682C17.5829 9.68434 16.8402 10.427 15.9241 10.427C15.0079 10.427 14.2652 9.68434 14.2652 8.7682C14.2652 7.85206 15.0079 7.10938 15.9241 7.10938ZM22.1777 19.0628C23.0084 19.0624 23.683 19.7341 23.686 20.5648C23.6877 21.1741 23.322 21.7243 22.7597 21.9588C22.1974 22.1933 21.5492 22.0659 21.1174 21.636C20.6857 21.2061 20.5555 20.5584 20.7876 19.9951C21.0198 19.4318 21.5684 19.0638 22.1777 19.0628ZM23.1059 14.6937C22.2259 15.1213 21.1659 14.7558 20.7365 13.8767C20.4224 13.2322 20.5275 12.462 21.0028 11.9253C21.478 11.3885 22.2298 11.1909 22.9076 11.4246C23.5854 11.6583 24.0556 12.2773 24.099 12.9929C24.1424 13.7085 23.7505 14.3798 23.1059 14.6937ZM9.00189 15.1866C10.0573 15.1875 10.9127 16.0429 10.9136 17.0983C10.9131 18.1535 10.0576 19.0086 9.00242 19.0084C7.94727 19.0083 7.09194 18.153 7.0918 17.0978C7.09165 16.0427 7.94674 15.1871 9.00189 15.1866Z" fill="#009BDE"/>
</svg>
